<?xml version="1.0" encoding="UTF-8"?>
<svg id="Layer_2" data-name="Layer 2" xmlns="http://www.w3.org/2000/svg" viewBox="0 0 20 20">
  <defs>
    <style>
      .cls-1 {
        fill: #fff;
      }

      .cls-2 {
        fill: #ee2158;
      }
    </style>
  </defs>
  <g>
    <rect class="cls-1" x=".5" y=".5" width="19" height="19" rx="3.5" ry="3.5"/>
    <path class="cls-2" d="M16,1c1.65,0,3,1.35,3,3v12c0,1.65-1.35,3-3,3H4c-1.65,0-3-1.35-3-3V4c0-1.65,1.35-3,3-3h12M16,0H4C1.79,0,0,1.79,0,4v12C0,18.21,1.79,20,4,20h12c2.21,0,4-1.79,4-4V4C20,1.79,18.21,0,16,0h0Z"/>
  </g>
  <g>
    <path class="cls-2" d="M9.99,6.1c1.59,0,3.19,0,4.78,0,.2,0,.48-.09.59.14.11.24-.16.37-.3.52-1.18,1.23-2.35,2.46-3.55,3.66-1,1.01-2.04,1.02-3.04.02-1.22-1.22-2.41-2.48-3.61-3.72-.13-.13-.35-.25-.29-.45.09-.27.37-.17.57-.17,1.62,0,3.24,0,4.86,0Z"/>
    <path class="cls-2" d="M9.96,13.91c-1.6,0-3.19,0-4.79,0-.23,0-.55.1-.66-.17-.1-.26.2-.41.36-.58.76-.8,1.54-1.59,2.3-2.4.33-.35.58-.34.94,0,1.33,1.22,2.36,1.22,3.67,0,.32-.29.54-.37.87-.02.82.86,1.67,1.69,2.51,2.54.13.13.33.26.24.47-.09.21-.33.16-.51.16-1.65,0-3.3,0-4.95,0Z"/>
    <path class="cls-2" d="M16.02,6.74c.09.07.05.24.05.4,0,2.02,0,4.03,0,6.14-.61-.19-.88-.65-1.23-.99-.62-.6-1.22-1.22-1.83-1.83-.25-.25-.44-.5-.1-.82,1.02-.96,2.04-1.91,3.1-2.89Z"/>
    <path class="cls-2" d="M3.92,13.21v-6.54c.41.07.59.4.83.63.72.73,1.42,1.48,2.14,2.21.3.3.37.58.04.89-.98.92-1.97,1.84-3.01,2.81Z"/>
  </g>
</svg>