<?xml version="1.0" encoding="UTF-8"?>
<svg id="Layer_2" xmlns="http://www.w3.org/2000/svg" version="1.1" viewBox="0 0 20 20">
  <!-- Generator: Adobe Illustrator 30.3.0, SVG Export Plug-In . SVG Version: 2.1.1 Build 22)  -->
  <defs>
    <style>
      .st0 {
        fill: #fff;
      }

      .st1 {
        fill: #a1a1a1;
      }
    </style>
  </defs>
  <rect class="st0" x=".5" y=".5" width="19" height="19" rx="3.5" ry="3.5"/>
  <path class="st1" d="M16,1c1.65,0,3,1.35,3,3v12c0,1.65-1.35,3-3,3H4c-1.65,0-3-1.35-3-3V4c0-1.65,1.35-3,3-3h12M16,0H4C1.79,0,0,1.79,0,4v12c0,2.21,1.79,4,4,4h12c2.21,0,4-1.79,4-4V4C20,1.79,18.21,0,16,0h0Z"/>
  <g>
    <path class="st1" d="M9.99,6.1h4.78c.2,0,.48-.09.59.14.11.24-.16.37-.3.52-1.18,1.23-2.35,2.46-3.55,3.66-1,1.01-2.04,1.02-3.04.02-1.22-1.22-2.41-2.48-3.61-3.72-.13-.13-.35-.25-.29-.45.09-.27.37-.17.57-.17h4.86-.01Z"/>
    <path class="st1" d="M9.96,13.91h-4.79c-.23,0-.55.1-.66-.17-.1-.26.2-.41.36-.58.76-.8,1.54-1.59,2.3-2.4.33-.35.58-.34.94,0,1.33,1.22,2.36,1.22,3.67,0,.32-.29.54-.37.87-.02.82.86,1.67,1.69,2.51,2.54.13.13.33.26.24.47s-.33.16-.51.16h-4.95.02Z"/>
    <path class="st1" d="M16.02,6.74c.09.07.05.24.05.4v6.14c-.61-.19-.88-.65-1.23-.99-.62-.6-1.22-1.22-1.83-1.83-.25-.25-.44-.5-.1-.82,1.02-.96,2.04-1.91,3.1-2.89h.01Z"/>
    <path class="st1" d="M3.92,13.21v-6.54c.41.07.59.4.83.63.72.73,1.42,1.48,2.14,2.21.3.3.37.58.04.89-.98.92-1.97,1.84-3.01,2.81Z"/>
  </g>
</svg>