<?xml version="1.0" encoding="UTF-8"?>
<svg id="Layer_2" xmlns="http://www.w3.org/2000/svg" version="1.1" viewBox="0 0 20 20">
  <!-- Generator: Adobe Illustrator 30.3.0, SVG Export Plug-In . SVG Version: 2.1.1 Build 22)  -->
  <defs>
    <style>
      .st0 {
        fill: #fff;
      }

      .st1 {
        fill: #a1a1a1;
      }
    </style>
  </defs>
  <g>
    <rect class="st0" x=".5" y=".5" width="19" height="19" rx="3.5" ry="3.5"/>
    <path class="st1" d="M16,1c1.65,0,3,1.35,3,3v12c0,1.65-1.35,3-3,3H4c-1.65,0-3-1.35-3-3V4c0-1.65,1.35-3,3-3h12M16,0H4C1.79,0,0,1.79,0,4v12c0,2.21,1.79,4,4,4h12c2.21,0,4-1.79,4-4V4C20,1.79,18.21,0,16,0h0Z"/>
  </g>
  <path class="st1" d="M8.38,14.33c0-.86-.02-1.72,0-2.58.02-.58-.21-.85-.8-.83-1.83.08-1.55-.08-1.62-1.75-.04-.87.25-1.17,1.12-1.13,1.3.05,1.3,0,1.3-1.34,0-3.04,1.86-4.73,4.89-4.51.55.04.78.27.76.8v.26c.03,1.69.03,1.7-1.63,1.82-.8.06-1.21.46-1.24,1.25-.01.29.01.58-.01.86-.06.69.27.9.92.89,2.26-.02,1.71-.14,1.62,1.86-.03.75-.42,1.02-1.17,1.01-1.37-.02-1.37.01-1.37,1.36,0,1.55-.02,3.1,0,4.65.01.66-.21.93-.89.92-2.15-.04-1.86.18-1.88-1.81v-1.72h0Z"/>
</svg>