<?xml version="1.0" encoding="UTF-8"?>
<svg id="Layer_2" xmlns="http://www.w3.org/2000/svg" version="1.1" viewBox="0 0 20 20">
  <!-- Generator: Adobe Illustrator 30.3.0, SVG Export Plug-In . SVG Version: 2.1.1 Build 22)  -->
  <defs>
    <style>
      .st0 {
        fill: #fff;
      }

      .st1 {
        fill: #a1a1a1;
      }
    </style>
  </defs>
  <g>
    <rect class="st0" x=".5" y=".5" width="19" height="19" rx="3.5" ry="3.5"/>
    <path class="st1" d="M16,1c1.65,0,3,1.35,3,3v12c0,1.65-1.35,3-3,3H4c-1.65,0-3-1.35-3-3V4c0-1.65,1.35-3,3-3h12M16,0H4C1.79,0,0,1.79,0,4v12c0,2.21,1.79,4,4,4h12c2.21,0,4-1.79,4-4V4C20,1.79,18.21,0,16,0h0Z"/>
  </g>
  <path class="st1" d="M4.51,6.61c0-.98.54-1.74,1.45-2.07.28-.1.52-.08.72.15.5.56.92,1.17,1.18,1.87.15.4,0,.74-.25,1.03-.47.57-.39,1.08.04,1.64.92,1.18,1.97,2.22,3.15,3.13.51.39.97.42,1.52.06.83-.55,2.81.2,3.13,1.16.08.25-.02.46-.13.68-.61,1.12-1.59,1.51-2.81,1.11-2.41-.77-4.04-2.57-5.69-4.33-.84-.89-1.55-1.88-2.01-3.03-.18-.45-.31-.9-.29-1.39h-.01Z"/>
</svg>