<?xml version="1.0" encoding="UTF-8"?>
<svg id="Layer_2" data-name="Layer 2" xmlns="http://www.w3.org/2000/svg" viewBox="0 0 20 20">
  <defs>
    <style>
      .cls-1 {
        fill: #fff;
      }

      .cls-2 {
        fill: #e7e7e7;
        stroke: #ee2158;
        stroke-miterlimit: 10;
      }

      .cls-3 {
        fill: #f7f7f7;
      }

      .cls-4 {
        fill: #ee2158;
      }
    </style>
  </defs>
  <g>
    <rect class="cls-1" x=".5" y=".5" width="19" height="19" rx="3.5" ry="3.5"/>
    <path class="cls-4" d="M16,1c1.65,0,3,1.35,3,3v12c0,1.65-1.35,3-3,3H4c-1.65,0-3-1.35-3-3V4C1,2.35,2.35,1,4,1h12M16,0H4C1.79,0,0,1.79,0,4v12C0,18.21,1.79,20,4,20h12c2.21,0,4-1.79,4-4V4C20,1.79,18.21,0,16,0h0Z"/>
  </g>
  <g>
    <path class="cls-2" d="M9.94,16.26c-.78,0-1.57.01-2.35,0-2.19-.05-3.84-1.7-3.86-3.88-.02-1.57-.02-3.14,0-4.7.02-2.23,1.73-3.93,3.98-3.96,1.51-.02,3.03-.02,4.54,0,2.32.02,3.98,1.68,4.01,3.99.02,1.51.02,3.03,0,4.54-.03,2.4-1.63,3.98-4.05,4-.76,0-1.51,0-2.27,0Z"/>
    <path class="cls-3" d="M15.12,10.07c0,.79.02,1.57,0,2.36-.05,1.51-1.12,2.63-2.62,2.67-1.65.04-3.3.04-4.96,0-1.5-.04-2.62-1.15-2.66-2.64-.04-1.62-.04-3.25,0-4.87.04-1.5,1.21-2.67,2.71-2.71,1.6-.05,3.2-.04,4.79,0,1.57.04,2.68,1.19,2.73,2.76.03.81,0,1.62,0,2.44Z"/>
    <path class="cls-2" d="M9.94,13.3c-1.74-.02-3.28-1.59-3.24-3.31.04-1.81,1.59-3.32,3.37-3.27,1.79.05,3.23,1.53,3.24,3.31,0,1.77-1.55,3.29-3.36,3.27Z"/>
    <path class="cls-2" d="M14.11,6.67c-.05.46-.25.75-.69.78-.47.04-.8-.2-.82-.67-.01-.46.3-.74.76-.76.46-.03.64.3.75.65Z"/>
    <path class="cls-3" d="M10.03,7.92c1.2.01,2.11.93,2.11,2.12,0,1.12-1.02,2.12-2.16,2.11-1.14-.01-2.12-1.02-2.11-2.15,0-1.17.97-2.08,2.16-2.07Z"/>
  </g>
</svg>