<?xml version="1.0" encoding="UTF-8"?>
<svg id="Layer_2" xmlns="http://www.w3.org/2000/svg" version="1.1" viewBox="0 0 20 20">
  <!-- Generator: Adobe Illustrator 30.3.0, SVG Export Plug-In . SVG Version: 2.1.1 Build 22)  -->
  <defs>
    <style>
      .st0 {
        fill: #fff;
      }

      .st1 {
        fill: #a1a1a1;
      }
    </style>
  </defs>
  <g>
    <rect class="st0" x=".5" y=".5" width="19" height="19" rx="3.5" ry="3.5"/>
    <path class="st1" d="M16,1c1.65,0,3,1.35,3,3v12c0,1.65-1.35,3-3,3H4c-1.65,0-3-1.35-3-3V4c0-1.65,1.35-3,3-3h12M16,0H4C1.79,0,0,1.79,0,4v12c0,2.21,1.79,4,4,4h12c2.21,0,4-1.79,4-4V4C20,1.79,18.21,0,16,0h0Z"/>
  </g>
  <path class="st1" d="M9.28,10.67c-.74-.16-1.38-.08-1.94.34-.81.59-1.11,1.67-.72,2.57.39.88,1.44,1.44,2.37,1.26,1.02-.19,1.75-1.04,1.76-2.06V2.53c.6,0,1.18,0,1.75,0,.08,0,.2.16.23.27.53,1.65,1.66,2.55,3.41,2.71v3.09c-1-.1-1.87-.48-2.78-1.05v.57c0,1.64.03,3.27-.03,4.91-.09,2.42-2.09,4.35-4.48,4.43-2.54.09-4.67-1.69-4.97-4.13-.3-2.43,1.34-4.74,3.73-5.24.04,0,.09-.01.14-.02,1.49-.22,1.52-.2,1.52,1.29v1.31h0Z"/>
</svg>