<?xml version="1.0" encoding="UTF-8"?>
<svg id="Layer_2" data-name="Layer 2" xmlns="http://www.w3.org/2000/svg" viewBox="0 0 20 20">
  <defs>
    <style>
      .cls-1 {
        fill: #fff;
      }

      .cls-2 {
        fill: #ee2158;
      }
    </style>
  </defs>
  <g>
    <rect class="cls-1" x="-.17" y="-.17" width="20.33" height="20.33" rx="3.5" ry="3.5"/>
    <path class="cls-2" d="M16.67.33c1.65,0,3,1.35,3,3v13.33c0,1.65-1.35,3-3,3H3.33c-1.65,0-3-1.35-3-3V3.33C.33,1.68,1.68.33,3.33.33h13.33M16.67-.67H3.33C1.13-.67-.67,1.13-.67,3.33v13.33c0,2.21,1.79,4,4,4h13.33c2.21,0,4-1.79,4-4V3.33c0-2.21-1.79-4-4-4h0Z"/>
  </g>
  <path class="cls-2" d="M9.23,10.71c-.79-.17-1.47-.08-2.07.36-.86.63-1.19,1.78-.77,2.74.41.94,1.53,1.54,2.53,1.35,1.08-.21,1.87-1.11,1.87-2.2,0-3.43,0-6.85,0-10.28,0-.19,0-.39,0-.66.64,0,1.25-.01,1.86.01.09,0,.21.17.25.29.57,1.76,1.77,2.71,3.64,2.89v3.29c-1.06-.1-2-.52-2.97-1.12,0,.26,0,.43,0,.61,0,1.74.04,3.49-.03,5.23-.1,2.58-2.23,4.64-4.77,4.73-2.7.09-4.98-1.8-5.3-4.41-.32-2.59,1.43-5.05,3.98-5.59.05-.01.1-.01.15-.02,1.59-.24,1.62-.21,1.62,1.37,0,.44,0,.88,0,1.39Z"/>
</svg>