<?xml version="1.0" encoding="UTF-8"?>
<svg id="Layer_2" data-name="Layer 2" xmlns="http://www.w3.org/2000/svg" viewBox="0 0 20 20">
  <defs>
    <style>
      .cls-1 {
        fill: #fff;
      }

      .cls-2 {
        fill: #ee2158;
      }
    </style>
  </defs>
  <g>
    <rect class="cls-1" x=".59" y=".57" width="19" height="19" rx="3.5" ry="3.5"/>
    <path class="cls-2" d="M16.09,1.07c1.65,0,3,1.35,3,3v12c0,1.65-1.35,3-3,3H4.09c-1.65,0-3-1.35-3-3V4.07c0-1.65,1.35-3,3-3h12M16.09.07H4.09C1.88.07.09,1.86.09,4.07v12c0,2.21,1.79,4,4,4h12c2.21,0,4-1.79,4-4V4.07C20.09,1.86,18.3.07,16.09.07h0Z"/>
  </g>
  <g>
    <path class="cls-2" d="M17.75,10.07c0,4.23-3.43,7.66-7.66,7.66-1.57,0-3.03-.47-4.24-1.28l-2.81.8.88-2.64c-.93-1.27-1.48-2.84-1.48-4.53,0-4.23,3.43-7.66,7.66-7.66s7.66,3.43,7.66,7.66Z"/>
    <path class="cls-1" d="M4.95,6.3c0-.98.54-1.74,1.45-2.07.28-.1.52-.08.72.15.5.56.92,1.17,1.18,1.87.15.4,0,.74-.25,1.03-.47.57-.39,1.08.04,1.64.92,1.18,1.97,2.22,3.15,3.13.51.39.97.42,1.52.06.83-.55,2.81.2,3.13,1.16.08.25-.02.46-.13.68-.61,1.12-1.59,1.51-2.81,1.11-2.41-.77-4.04-2.57-5.69-4.33-.84-.89-1.55-1.88-2.01-3.03-.18-.45-.31-.9-.29-1.39Z"/>
  </g>
</svg>