<?xml version="1.0" encoding="UTF-8"?>
<svg id="Layer_2" xmlns="http://www.w3.org/2000/svg" version="1.1" viewBox="0 0 20 20">
  <!-- Generator: Adobe Illustrator 30.3.0, SVG Export Plug-In . SVG Version: 2.1.1 Build 22)  -->
  <defs>
    <style>
      .st0 {
        fill: #f6f6f6;
      }

      .st1 {
        fill: #fff;
      }

      .st2 {
        fill: #a1a1a1;
      }
    </style>
  </defs>
  <g>
    <rect class="st1" x=".5" y=".5" width="19" height="19" rx="3.5" ry="3.5"/>
    <path class="st2" d="M16,1c1.65,0,3,1.35,3,3v12c0,1.65-1.35,3-3,3H4c-1.65,0-3-1.35-3-3V4c0-1.65,1.35-3,3-3h12M16,0H4C1.79,0,0,1.79,0,4v12c0,2.21,1.79,4,4,4h12c2.21,0,4-1.79,4-4V4C20,1.79,18.21,0,16,0h0Z"/>
  </g>
  <g>
    <path class="st2" d="M9.83,14.45c-1.38-.02-2.76.01-4.13-.14-1.2-.13-1.84-.8-1.93-2-.11-1.54-.12-3.07,0-4.61.09-1.24.82-1.94,2.08-2.03,2.76-.18,5.51-.2,8.27,0,1.33.09,2.05.72,2.14,2.05.1,1.51.1,3.03,0,4.54-.09,1.36-.77,1.96-2.12,2.05-1.43.1-2.86.15-4.3.14h-.01Z"/>
    <path class="st0" d="M8.65,10.08c0-1.33.56-1.68,1.67-1.05q1.67.95,0,1.93c-.48.28-1.03.92-1.46.69-.52-.28-.11-1.09-.21-1.57Z"/>
  </g>
</svg>